<?xml version="1.0" encoding="utf-8"?>
<!-- Generator: Adobe Illustrator 26.2.1, SVG Export Plug-In . SVG Version: 6.00 Build 0)  -->
<svg version="1.1" id="Layer_1" xmlns="http://www.w3.org/2000/svg" xmlns:xlink="http://www.w3.org/1999/xlink" x="0px" y="0px"
	 viewBox="0 0 1142 1143" style="enable-background:new 0 0 1142 1143;" xml:space="preserve">
<style type="text/css">
	.st0{clip-path:url(#SVGID_00000154393705734836088520000008965356411472764807_);}
	.st1{fill:none;stroke:#FFFFFF;stroke-width:39;stroke-linecap:round;stroke-linejoin:round;}
	.st2{fill:#FFFFFF;}
</style>
<g>
	<defs>
		
			<rect id="SVGID_1_" x="6.8" y="5.9" transform="matrix(1 -1.944602e-03 1.944602e-03 1 -1.1103 1.1114)" width="1128.4" height="1131.1"/>
	</defs>
	<clipPath id="SVGID_00000149374295000242106250000008880275879837834423_">
		<use xlink:href="#SVGID_1_"  style="overflow:visible;"/>
	</clipPath>
	<g style="clip-path:url(#SVGID_00000149374295000242106250000008880275879837834423_);">
		<path class="st1" d="M571.4,783.6c116.9-0.2,211.4-95.4,211.2-212.5c-0.2-117.1-95.1-211.9-212-211.7
			c-116.9,0.2-211.4,95.4-211.2,212.5C359.7,689,454.6,783.8,571.4,783.6z"/>
		<path class="st1" d="M816,293.1c11.2,10.3,21.8,20.9,31.8,31.8l120.4,17c19.7,34.1,34.9,70.6,45.2,108.6l-73,97.8
			c0,0,1.4,30,0.1,45.1l73.4,97.5c-10.1,38.1-25.2,74.6-44.7,108.8l-120.3,17.5c0,0-20.7,21.7-31.7,31.9l-17,120.7
			c-34,19.7-70.4,34.9-108.3,45.3l-97.6-73.2c-15,1.4-30,1.4-45,0.1l-97.3,73.5c-38-10.1-74.5-25.2-108.5-44.9L326,849.9
			c-10.9-10.3-21.5-20.9-31.8-31.8l-120.4-17c-19.7-34.1-34.9-70.6-45.2-108.6l73-97.8c0,0-1.4-30-0.1-45.1l-73.4-97.5
			c10.1-38.1,25.2-74.6,44.7-108.8l120.3-17.5c10.3-10.9,20.8-21.5,31.7-31.9l17-120.7c34-19.7,70.4-34.9,108.3-45.3l97.6,73.2
			c15-1.4,30-1.4,45-0.1l97.3-73.5c38,10.1,74.5,25.2,108.5,44.9L816,293.1z"/>
		<path class="st2" d="M575.9,633.8c0.2-5.1,0.5-8.7,1.2-12.4c2.5-14.5,8.6-21.8,23.3-28c30.3-12.2,33.8-13.9,42.5-19.5
			c15.3-10,24.2-23.7,27.5-42.9c7.5-43.4-23.8-77.1-81.6-87.2c-36.1-6.3-65.9-0.5-87.7,17.1c-14.2,11.1-21.4,22.5-28.4,44.3
			l63.6,17.6c2.9-9.5,5-13.7,9-18.2c7.7-8.7,18.9-11.9,33-9.5c18.8,3.3,28.3,14,25.7,28.8c-1.8,10.4-8,16.1-24.9,22.6
			c-24.6,9.6-27.5,11.1-36.6,18.6c-12.2,10.5-18.1,22.5-21.9,44.2c-1.6,9.1-1.6,9.4-3.1,14.4L575.9,633.8z M511.6,644.7l-10.3,59.5
			l63.1,11l10.3-59.5L511.6,644.7z"/>
	</g>
</g>
</svg>
