<svg width="1080" height="1080" viewBox="0 0 1080 1080" fill="none" xmlns="http://www.w3.org/2000/svg">
<g clip-path="url(#clip0_6_12)">
<path d="M461.539 676.282C536.54 719.39 632.371 693.388 675.582 618.206C718.794 543.024 693.024 447.131 618.023 404.024C543.022 360.916 447.191 386.918 403.98 462.1C360.768 537.282 386.538 633.175 461.539 676.282Z" stroke="white" stroke-width="39" stroke-linecap="round" stroke-linejoin="round"/>
<path d="M799.896 452.341C803.26 463.078 806.138 473.787 808.53 484.469L879.41 539.922C879.403 569.064 875.624 598.089 868.169 626.274L785.181 661.957C785.181 661.957 774.945 681.73 768.554 690.885L779.495 780.554C758.918 801.211 735.736 819.09 710.538 833.734L626.944 800.402C626.944 800.402 605.66 806.656 594.838 809.113L539.304 880.195C510.198 880.248 481.215 876.526 453.08 869.12L417.613 786.105C407.523 781.438 397.867 775.888 388.755 769.519L299.171 780.66C278.582 760.101 260.774 736.928 246.2 711.73L279.666 627.965C276.491 617.337 273.613 606.627 271.032 595.838L200.152 540.384C200.159 511.243 203.938 482.217 211.393 454.032L294.381 418.349C294.381 418.349 304.617 398.576 311.008 389.422L300.067 299.752C320.644 279.095 343.826 261.216 369.024 246.572L452.618 279.904C463.24 276.703 473.942 273.799 484.724 271.193L540.258 200.111C569.364 200.058 598.347 203.78 626.482 211.186L661.949 294.201C672.039 298.868 681.695 304.418 690.807 310.787L780.391 299.646C800.98 320.205 818.788 343.378 833.362 368.576L799.896 452.341Z" stroke="white" stroke-width="39" stroke-linecap="round" stroke-linejoin="round"/>
<path d="M519.863 581.949C521.926 578.742 523.412 576.593 525.23 574.414C532.201 566.062 538.857 563.611 550.552 565.066C574.486 568.429 577.357 568.671 585.036 568.309C598.55 567.585 609.294 562.078 618.538 551.002C639.452 525.946 631.818 492.743 598.507 464.894C577.688 447.488 556.423 440.191 535.921 443.396C522.677 445.27 513.87 449.93 501.299 461.308L535.562 496.118C540.984 491.095 543.83 489.159 548.065 487.767C556.202 485.014 564.601 487.104 572.748 493.915C583.61 502.996 585.703 513.377 578.58 521.911C573.579 527.903 567.5 529.294 554.234 527.144C534.864 524.205 532.507 524.083 523.918 525.535C512.215 527.773 503.98 533.219 493.524 545.748C489.129 551.013 488.977 551.195 486.19 553.797L519.863 581.949ZM474.618 565.085L445.975 599.402L482.363 629.824L511.006 595.507L474.618 565.085Z" fill="white"/>
</g>
<defs>
<clipPath id="clip0_6_12">
<rect width="835.382" height="837.4" fill="white" transform="translate(386.289 -31) rotate(29.8886)"/>
</clipPath>
</defs>
</svg>
